# xmcd
#
# Track frame offsets:
#	150
#	14038
#	26963
#	39129
#	50739
#	65878
#	80453
#	93759
#	108935
#	124401
#	135937
#	147215
#	160057
#	175558
#	189874
#
# Disc length: 2711 seconds
#
# Revision: 1
# Processed by: cddbd v1.5.2PL0 Copyright (c) Steve Scherf et al.
# Submitted via: audiograbber 1.83.01
#
DISCID=c30a950f
DTITLE=Vazelina Bilopphøggers - Bensin på bålet
DYEAR=2007
DGENRE=totenpunk
TTITLE0=Bensin på bålet
TTITLE1=Los på cellulosen
TTITLE2=Schwabadaba ding ding
TTITLE3=Bingovinger
TTITLE4=Rydde robot
TTITLE5=Je treng itte dra tel Memphis
TTITLE6=Bak radar´n midt i Odal´n
TTITLE7=Vinn eller forsvinn
TTITLE8=Nei, nei sangen
TTITLE9=Kebab-a-lula
TTITLE10=Isabella
TTITLE11=Sekk med røti´ gul´rot
TTITLE12=Lenge, lenge se´a´
TTITLE13=Nr.44
TTITLE14=Rally rett i kroppen
EXTD=
EXTT0=
EXTT1=
EXTT2=
EXTT3=
EXTT4=
EXTT5=
EXTT6=
EXTT7=
EXTT8=
EXTT9=
EXTT10=
EXTT11=
EXTT12=
EXTT13=
EXTT14=
PLAYORDER=
